<?xml version="1.0" encoding="UTF-8"?>
<svg id="Layer_6" data-name="Layer 6" xmlns="http://www.w3.org/2000/svg" viewBox="0 0 320 320">
  <defs>
    <style>
      .cls-1, .cls-2 {
        fill: #052c48;
      }

      .cls-2 {
        fill-rule: evenodd;
      }
    </style>
  </defs>
  <path class="cls-1" d="M160,314.96l-1.78-1.41c-.28-.22-28.4-22.42-71.63-58.18-1.21-1-2.46-2.02-3.73-3.06-12.94-10.57-29.05-23.73-39.08-44.66-5.11-10.66-3.98-22.77-2.26-41.11,1.64-17.55,3.88-41.58,1.59-75.96-1.54-23.12-12.48-38.9-12.59-39.06l-3.59-5.1,6.21.57c.25.02,25.73,2.25,53.91-4.31,28.12-6.55,70.89-36.21,71.31-36.51l1.65-1.15,1.65,1.15c.43.3,43.19,29.96,71.31,36.51,28.17,6.56,53.66,4.33,53.91,4.31l6.2-.57-3.58,5.09c-.11.16-11.06,16.03-12.59,39.06-2.29,34.38-.05,58.41,1.59,75.96,1.71,18.34,2.84,30.45-2.26,41.11-10.03,20.93-26.14,34.09-39.08,44.66-1.28,1.04-2.52,2.06-3.73,3.06-43.23,35.76-71.35,57.96-71.63,58.18l-1.78,1.41ZM38.14,53.06c3.66,6.71,9.56,19.96,10.71,37.15,2.32,34.84.05,59.13-1.6,76.87-1.62,17.38-2.7,28.86,1.72,38.08,9.48,19.77,25.03,32.48,37.53,42.69,1.29,1.05,2.54,2.08,3.76,3.08,37.01,30.62,62.92,51.27,69.75,56.68,6.82-5.41,32.74-26.07,69.75-56.68,1.22-1.01,2.47-2.03,3.76-3.08,12.5-10.21,28.05-22.92,37.53-42.69,4.42-9.22,3.35-20.7,1.72-38.08-1.66-17.74-3.93-42.04-1.6-76.87l2.87.19-2.87-.19c1.15-17.18,7.05-30.43,10.71-37.15-9.21.34-28.73.25-50.2-4.75-26.34-6.13-63.34-30.6-71.66-36.26-8.32,5.66-45.32,30.13-71.66,36.26-21.47,5-40.99,5.09-50.2,4.75Z"/>
  <g>
    <path class="cls-1" d="M132.09,106.63c-.58,2.84-.54,4.6.1,5.28.65.68,2.38,1.07,5.19,1.16.18.23.21.63.07,1.21-.14.58-.32.98-.55,1.21-4.55-.09-8.35-.14-11.42-.14s-6.82.05-11.25.14c-.18-.23-.22-.63-.1-1.19.12-.57.29-.97.52-1.23,2.88-.09,4.78-.48,5.68-1.16.9-.68,1.63-2.44,2.18-5.28l5.33-27.13c.46-2.17.58-3.88.35-5.14-.23-1.26-.96-1.89-2.18-1.89h-3.36c-2.31,0-4.27.57-5.9,1.7-1.63,1.13-3.03,3.07-4.21,5.81-1.18,0-2.03-.12-2.56-.35,1.52-3.65,2.75-7.09,3.67-10.35,0-.14.13-.21.38-.21,4.55.37,9.78.55,15.71.55h9.59c6.09,0,11.21-.18,15.37-.55.09,0,.14.07.14.21-.58,3.07-.92,6.45-1.04,10.14-.53.23-1.45.35-2.77.35-.05-2.65-.67-4.53-1.89-5.64s-3.14-1.66-5.8-1.66h-1.56c-1.18,0-2.09.59-2.75,1.77s-1.23,3-1.71,5.47l-5.23,26.93Z"/>
    <path class="cls-1" d="M173.56,116.04c-6.9,0-12.02-1.49-15.37-4.46-2.22-1.98-3.7-4.69-4.46-8.12-.76-3.43-.81-6.9-.14-10.43,1.45-7.52,4.95-13.46,10.5-17.81,5.55-4.35,11.8-6.52,18.74-6.52,2.45,0,4.6.24,6.45.71,1.86.47,3.43.98,4.72,1.52,1.29.54,2.34.87,3.15.99-.18,4.68-.39,8.34-.62,10.97-1.13.58-2.15.69-3.05.35-.32-3.65-1.33-6.48-3.01-8.51-1.68-2.03-4.65-3.05-8.89-3.05-3.97,0-7.6,1.93-10.88,5.78-3.29,3.85-5.47,8.6-6.56,14.22-1.08,5.58-.63,10.43,1.35,14.54,1.98,4.11,4.91,6.16,8.79,6.16,5.77,0,11.27-2.46,16.51-7.37.37,0,.77.17,1.19.5.43.33.69.66.78.99-5.95,6.37-12.36,9.55-19.21,9.55Z"/>
    <path class="cls-1" d="M205.21,67.66c1.56-.74,3.12-1.11,4.68-1.11,1.76,0,3.31.49,4.64,1.48s2,2.26,2,3.8c0,.43-.02.83-.06,1.21-.04.38-.15.76-.32,1.16-.18.4-.31.73-.41.99-.1.26-.33.62-.7,1.06-.36.44-.63.77-.81.99-.17.22-.55.6-1.12,1.14-.57.54-.99.93-1.24,1.17-.26.24-.77.71-1.55,1.42-.78.71-1.35,1.23-1.72,1.55l-2.24,2.04c-1,.91-2,1.94-3.01,3.09h5.83c.89,0,1.53-.17,1.93-.5.4-.34.96-1.2,1.68-2.58.61,0,1.16.13,1.65.4-.98,2.97-1.86,5.23-2.64,6.78h-14.59c-.08-.15-.1-.38-.06-.71s.11-.58.22-.79c1.72-1.56,4.07-3.88,7.04-6.96l3.39-3.49c1.2-1.22,2.05-2.39,2.55-3.5.5-1.11.76-2.38.76-3.8,0-1.04-.32-1.87-.97-2.51s-1.43-.96-2.34-.96c-1.49,0-2.47.43-2.93,1.29-.19.22-.22.63-.1,1.25.12.62.15,1.08.1,1.39-.12.61-.44,1.06-.95,1.37-.51.31-1.08.46-1.72.46-.58,0-1.03-.18-1.36-.55-.33-.37-.49-.8-.49-1.3,0-1.98,1.61-3.74,4.84-5.29Z"/>
  </g>
  <g>
    <path class="cls-1" d="M194.21,150.96l-3.31,8.68c-.42,1.09-.22,2.33.52,3.23l12.11,14.88,6.71-6.28,2.65-2.48-18.68-18.04Z"/>
    <polygon class="cls-1" points="195.41 149.95 216.99 155.21 218.5 138.4 195.41 149.95"/>
    <polygon class="cls-1" points="216.24 161.6 214.16 168.77 217.72 170.62 224.82 174.31 232.14 155.09 217.79 156.26 216.24 161.6"/>
    <polygon class="cls-1" points="218.96 144.01 217.95 155.28 231.91 154.15 219.43 138.81 218.96 144.01"/>
    <polygon class="cls-1" points="216.82 156.15 195.63 151 213.35 168.11 215.27 161.49 216.82 156.15"/>
    <rect class="cls-1" x="217.79" y="156.26" width="0" height="0"/>
    <polygon class="cls-1" points="206.7 176.11 204.96 177.74 223.57 174.74 213.67 169.59 206.7 176.11"/>
    <rect class="cls-1" x="213.67" y="169.59" width="0" height="0"/>
  </g>
  <g>
    <path class="cls-1" d="M268.94,167.43c-1.01-10.79-2.26-24.22-2.55-40.91l-1.92-1.89H55.54l-1.92,1.89c-.29,16.69-1.54,30.12-2.55,40.92-1.62,17.34-2.6,27.81,1.36,36.07,9.11,19,23.66,30.89,36.49,41.38,1.29,1.05,2.55,2.09,3.78,3.1,31.23,25.83,54.44,44.49,65.5,53.31l.6.48h2.39l.6-.48c11.06-8.82,34.29-27.48,65.5-53.31,1.2-.99,2.44-2,3.7-3.04l.08-.06c12.84-10.49,27.39-22.38,36.49-41.38,3.96-8.26,2.98-18.73,1.36-36.08ZM87.03,138.46h34.7v2.4h-34.7v-2.4ZM113.68,156.73c-1.29,0-2.59.52-3.74,1.78l-3.64-1.54.98-12.25h12.67v3.74h-9.31l-.52,5.81c1.01-.94,2.45-1.36,3.74-1.36,4.79,0,7.56,3.25,7.56,8.75s-3.57,8.54-8.43,8.54c-3.64,0-5.46-.77-7.03-1.96l1.99-3.71c1.78,1.29,3.39,1.78,4.97,1.78,2.83,0,4.93-1.61,4.93-4.69s-2.03-4.9-4.16-4.9ZM102.2,166.15v3.71h-14.7v-1.99c0-5.67,1.82-8.61,5.77-10.88,2.66-1.5,5.14-1.85,5.14-5.28,0-2.1-1.12-3.29-3.39-3.29-1.99,0-3.53.52-4.83,2.62l-2.52-3.25c1.78-2.27,4.16-3.39,7.56-3.39,4.06,0,6.96,2.59,6.96,7.1s-2.73,6.68-6.3,8.47c-2.97,1.5-4.13,3.53-4.13,6.19h10.43ZM87.03,172.91h34.7v2.4h-34.7v-2.4ZM95.15,245.02c-1.23-1.02-2.5-2.05-3.8-3.12-12.53-10.24-26.73-21.84-35.46-40.06-1.72-3.58-2.36-7.82-2.4-13.19h106.51v-60.19h102.58c.35,15.96,1.55,28.87,2.53,39.32.79,8.51,1.43,15.29,1.39,20.87h-106.51v109.15s0,0,0,0c-11.28-9-34.2-27.43-64.85-52.79ZM197.78,232.74v-3.15l11.26-15.47h4.46v14.94h2.89v3.67h-2.89v6.51h-4.11v-6.51h-11.62ZM184.76,210.25v-2.4h33.55v2.4h-33.55ZM187.45,219.82v-3.43c1.76-.11,3.13-.91,3.44-2.27h3.32v25.12h-4.15v-19.42h-2.62ZM218.31,242.3v2.4h-33.55v-2.4h33.55Z"/>
    <polygon class="cls-1" points="209.39 219.72 202.59 229.06 209.39 229.06 209.39 219.72"/>
  </g>
  <polygon class="cls-1" points="62.07 75.09 62.07 103.79 90.78 89.44 62.07 75.09"/>
  <polygon class="cls-1" points="231.9 75.09 231.9 103.79 260.61 89.44 231.9 75.09"/>
  <path id="path3495-5" class="cls-2" d="M163.36,36.52l.19.66,5.6.09h5.6l-4.46,3.23c-2.47,1.8-4.55,3.32-4.55,3.32,0,.09.76,2.47,1.71,5.31.95,2.94,1.71,5.31,1.71,5.31,0,0-2.09-1.42-4.55-3.23-2.47-1.8-4.46-3.32-4.55-3.32,0,.09-1.99,1.52-4.46,3.23-4.84,3.6-4.55,3.41-4.55,3.32s3.13-9.58,3.32-10.15l.09-.47-4.46-3.32-4.55-3.23,11.19-.09.19-.66c.19-.38.95-2.75,1.71-5.31.85-2.47,1.52-4.55,1.52-4.55.09,0,1.71,4.84,3.32,9.87Z"/>
  <path id="path3495" class="cls-2" d="M132.63,43.54l.09.38h6.26l-2.56,1.8c-1.33,1.04-2.47,1.8-2.47,1.9,0,0,.38,1.33.95,2.94.47,1.61.95,2.94.95,2.94,0,0-1.14-.85-2.56-1.8-1.33-1.04-2.47-1.8-2.47-1.8,0,0-1.14.76-2.47,1.71-2.75,1.99-2.56,1.9-2.56,1.9,0-.09,1.71-5.31,1.8-5.69l.09-.19-2.56-1.9-2.47-1.8h6.26l.09-.38c.09-.28.47-1.52.95-2.94s.85-2.56.85-2.56c0,0,.85,2.75,1.8,5.5Z"/>
  <path id="path3495-8" class="cls-2" d="M188.4,43.44l.09.38h6.07l-2.47,1.8c-1.33.95-2.37,1.71-2.37,1.8,0,0,.38,1.33.85,2.85.57,1.61.95,2.85.95,2.85,0,.09-1.14-.76-2.47-1.71-1.33-1.04-2.47-1.8-2.47-1.8,0,0-1.14.76-2.47,1.8-2.66,1.9-2.47,1.8-2.47,1.71,0,0,1.71-5.12,1.8-5.5l.09-.19-2.47-1.8-2.47-1.8h6.07l.19-.38c0-.28.47-1.52.85-2.94.47-1.33.85-2.47.85-2.47,0,0,.85,2.66,1.8,5.41Z"/>
  <path class="cls-1" d="M139.52,196.35c-.23-.24-.65-.52-1.36-.52-.67,0-1.24.51-1.88,1.3l-2.25,2.85c-2.23-2.76-5.51-4.15-9.78-4.15s-8.15,1.62-11.38,4.81c-3.23,3.19-4.87,6.95-4.87,11.16-.02,2.99.9,5.64,2.76,7.88,1.1,1.27,2.27,2.16,3.47,2.67.92.38,2.47.88,4.7,1.5l-1.58,2.41-.3.46-.45.69-3.52-2.29-.72,1.1-1.19,1.82s-.87,1-.82,3.42c.02.87.24,1.83.51,2.69.03.09.06.17.08.26.08.24.17.48.25.7.1.27.2.51.3.74.29.66.51,1.09.51,1.09,0,0,.66.05,1.59.03.8-.02,1.79-.09,2.74-.29.47-.1.94-.23,1.36-.4.6-.25,1.08-.52,1.46-.78.15-.1.29-.2.41-.3.14-.12.27-.23.37-.33.42-.41.57-.71.57-.71l1.91-2.92-3.51-2.31.76-1.15,2.08-3.17,4.01,1.05c2.57,1.08,3.82,3.13,3.82,6.28,0,2.56-.94,4.89-2.88,7.1-1.9,2.17-4.15,3.23-6.87,3.23-3.33,0-6.13-.85-8.32-2.54-2.14-1.65-3.18-4.04-3.18-7.32,0-.19.02-.57.14-1.32.11-.73.16-1.21.16-1.53,0-1.06-.74-1.78-1.85-1.78-.88,0-1.33.38-1.55.71-.22.32-.37.82-.48,1.62l-2.24,13.41c-.1.47-.15.85-.15,1.13,0,1.04.68,1.75,1.68,1.75h.1c.66,0,1.28-.38,1.86-1.11l2.34-3c.48.46.93.87,1.36,1.21.73.58,1.99,1.2,3.85,1.88,1.84.68,3.93,1.02,6.22,1.02,4.51,0,8.44-1.79,11.7-5.33,3.23-3.51,4.87-7.48,4.87-11.8,0-3.3-.98-6.15-2.9-8.46-1.03-1.27-2.16-2.2-3.37-2.76-.79-.36-1.87-.74-3.28-1.14l.88-1.35s.1-.15.22-.34c.12-.19.45-.39.69-.43.27-.04.54.04.54.04l.1.07c.55.36,1.29.2,1.65-.34l1.76-2.69c.36-.55.2-1.29-.34-1.65l-3.87-2.54c-.55-.36-1.29-.2-1.65.34l-1.76,2.69c-.36.55-.2,1.29.34,1.65l.1.07s.02.03.06.08l.2.45c.05.24,0,.58-.12.76-.12.19-.22.34-.22.34l-1.39,2.12-1.77-.46c-1.4-.34-2.71-.69-3.9-1.02-1-.47-1.82-1.16-2.53-2.12-.69-.94-1.03-2.08-1.03-3.46,0-2.34.92-4.4,2.8-6.31,1.88-1.9,4.05-2.82,6.62-2.82,3.19,0,5.5.94,7.06,2.89,1.6,1.98,2.41,4.72,2.41,8.14,0,.36,0,.5-.01.54-.03.15-.05.37-.05.85,0,1.65,1.02,2.23,1.98,2.23.53,0,.98-.13,1.33-.4l.33-.25,2.74-16.17v-.13c.04-.66-.22-1.08-.44-1.31ZM126.82,210.37l.75-1.15c.11-.16.33-.21.5-.1l2.87,1.88c.16.11.21.33.1.5l-.75,1.15c-.11.16-.33.21-.5.1l-2.87-1.88c-.16-.11-.21-.33-.1-.5Z"/>
</svg>