<?xml version="1.0" encoding="UTF-8"?>
<svg id="Coal_Emoji" data-name="Coal Emoji" xmlns="http://www.w3.org/2000/svg" viewBox="0 0 320 320">
  <defs>
    <style>
      .cls-1 {
        fill: #323232;
        stroke-linecap: round;
      }

      .cls-1, .cls-2, .cls-3, .cls-4 {
        stroke: #f6dc94;
        stroke-linejoin: bevel;
        stroke-width: 3.46px;
      }

      .cls-2 {
        fill: #221f1f;
      }

      .cls-3 {
        fill: #282828;
      }

      .cls-4 {
        fill: #171616;
      }
    </style>
  </defs>
  <path class="cls-3" d="M32.96,101.63c-.53-.53-.04-1.45.68-1.27l169.7,42.74L215.4,4.29,31.04,99.7,4.77,171.04c-3.52,9.55-1.84,20.32,4.39,28.25l91.57,116.43,74.37-72L32.96,101.63Z"/>
  <polygon class="cls-2" points="203.34 143.09 175.1 243.72 259.71 289.24 317.04 133.52 203.34 143.09"/>
  <polygon class="cls-1" points="317.04 133.52 215.4 4.29 203.34 143.09 317.04 133.52"/>
  <path class="cls-1" d="M32.96,101.63l142.13,142.09,28.24-100.63L33.64,100.35c-.72-.18-1.21.74-.68,1.27Z"/>
  <polygon class="cls-4" points="100.73 315.71 259.71 289.24 175.1 243.72 100.73 315.71"/>
</svg>