<?xml version="1.0" encoding="UTF-8"?>
<svg id="TC2_Corte" data-name="TC2 Corte" xmlns="http://www.w3.org/2000/svg" viewBox="0 0 320 320">
  <defs>
    <style>
      .cls-1 {
        fill: #61cbe8;
      }
    </style>
  </defs>
  <g>
    <path class="cls-1" d="M134.64,104.62c-.68,3.37-.64,5.45.12,6.26.77.81,2.82,1.27,6.16,1.38.22.27.25.75.08,1.44-.16.68-.38,1.16-.66,1.44-5.39-.11-9.91-.16-13.55-.16s-8.09.05-13.34.16c-.22-.27-.26-.75-.12-1.42.14-.67.34-1.16.62-1.46,3.42-.11,5.67-.57,6.73-1.38,1.07-.81,1.93-2.89,2.59-6.26l6.32-32.19c.55-2.57.68-4.61.41-6.1-.27-1.49-1.14-2.24-2.59-2.24h-3.98c-2.74,0-5.07.67-7,2.01-1.93,1.34-3.59,3.64-4.99,6.9-1.4,0-2.41-.14-3.04-.41,1.81-4.32,3.26-8.42,4.35-12.28,0-.16.15-.25.45-.25,5.39.44,11.61.66,18.64.66h11.37c7.23,0,13.3-.22,18.23-.66.11,0,.16.08.16.25-.68,3.64-1.1,7.65-1.23,12.03-.63.27-1.72.41-3.28.41-.06-3.15-.8-5.38-2.24-6.69s-3.73-1.97-6.88-1.97h-1.85c-1.4,0-2.48.7-3.26,2.09s-1.46,3.56-2.03,6.49l-6.2,31.95Z"/>
    <path class="cls-1" d="M183.83,115.79c-8.19,0-14.26-1.77-18.23-5.3-2.63-2.35-4.39-5.56-5.3-9.63-.9-4.06-.96-8.19-.16-12.38,1.72-8.92,5.88-15.97,12.46-21.13,6.58-5.16,13.99-7.74,22.23-7.74,2.9,0,5.45.28,7.66.84,2.2.56,4.07,1.16,5.6,1.81,1.53.64,2.78,1.03,3.74,1.17-.22,5.56-.47,9.9-.74,13.02-1.34.68-2.55.82-3.61.41-.38-4.32-1.57-7.69-3.57-10.1-2-2.41-5.52-3.61-10.55-3.61-4.71,0-9.01,2.29-12.91,6.86-3.9,4.57-6.49,10.2-7.78,16.88-1.29,6.62-.75,12.37,1.6,17.25,2.35,4.87,5.83,7.31,10.43,7.31,6.84,0,13.37-2.92,19.59-8.75.44,0,.91.2,1.42.6.51.4.81.79.92,1.17-7.06,7.56-14.66,11.33-22.79,11.33Z"/>
    <path class="cls-1" d="M229.44,62.49c3.41-1.62,6.82-2.42,10.23-2.42,3.85,0,7.23,1.08,10.14,3.24,2.91,2.16,4.36,4.93,4.36,8.31,0,.94-.04,1.82-.13,2.65-.09.82-.32,1.67-.71,2.53-.38.87-.68,1.59-.9,2.16-.22.57-.73,1.34-1.52,2.31-.79.97-1.38,1.69-1.76,2.16-.38.47-1.2,1.3-2.45,2.49-1.25,1.19-2.15,2.04-2.71,2.56-.56.51-1.69,1.55-3.39,3.11-1.7,1.56-2.95,2.69-3.75,3.39l-4.89,4.45c-2.18,2-4.36,4.25-6.57,6.75h12.74c1.94,0,3.34-.37,4.21-1.1.87-.73,2.09-2.62,3.68-5.64,1.32,0,2.53.29,3.62.88-2.15,6.5-4.07,11.43-5.78,14.81h-31.87c-.18-.32-.22-.84-.13-1.54s.25-1.28.48-1.72c3.76-3.41,8.89-8.48,15.39-15.21l7.41-7.63c2.62-2.67,4.47-5.22,5.58-7.65,1.1-2.42,1.65-5.19,1.65-8.31,0-2.26-.71-4.09-2.12-5.49s-3.12-2.09-5.11-2.09c-3.26,0-5.39.94-6.39,2.82-.41.47-.48,1.38-.22,2.73.26,1.35.34,2.37.22,3.04-.26,1.32-.96,2.32-2.07,3-1.12.68-2.37,1.01-3.75,1.01-1.26,0-2.26-.4-2.98-1.21-.72-.81-1.08-1.76-1.08-2.84,0-4.32,3.53-8.17,10.58-11.55Z"/>
  </g>
  <polygon class="cls-1" points="61.5 67.75 61.5 110.31 104.06 89.03 61.5 67.75"/>
  <path class="cls-1" d="M139.71,194.18c-.24-.26-.7-.56-1.46-.56-.72,0-1.33.55-2.02,1.4l-2.42,3.06c-2.39-2.96-5.92-4.46-10.5-4.46s-8.75,1.74-12.22,5.16c-3.47,3.43-5.23,7.46-5.23,11.98-.03,3.21.97,6.05,2.96,8.46,1.18,1.36,2.43,2.32,3.73,2.87.99.41,2.65.94,5.05,1.61l-1.7,2.59-.33.5-.49.74-3.78-2.46-.77,1.18-1.28,1.96s-.93,1.08-.88,3.68c.02.94.26,1.96.55,2.89.03.09.06.18.09.28.09.26.18.51.27.75.11.29.22.55.32.79.31.71.55,1.17.55,1.17,0,0,.71.05,1.71.03.86-.02,1.92-.1,2.94-.31.51-.11,1.01-.25,1.46-.43.65-.27,1.16-.55,1.57-.83.16-.11.31-.22.44-.32.15-.12.29-.24.4-.35.45-.45.61-.77.61-.77l2.05-3.14-3.77-2.48.81-1.24,2.23-3.41,4.31,1.13c2.76,1.16,4.1,3.36,4.1,6.74,0,2.75-1.01,5.25-3.09,7.62-2.04,2.33-4.46,3.47-7.38,3.47-3.58,0-6.58-.92-8.93-2.73-2.3-1.77-3.41-4.34-3.41-7.86,0-.2.03-.61.15-1.42.12-.78.17-1.3.17-1.64,0-1.14-.8-1.91-1.98-1.91-.94,0-1.43.41-1.66.76-.24.35-.4.88-.51,1.74l-2.41,14.4c-.11.51-.16.91-.16,1.22,0,1.12.73,1.88,1.81,1.88h.1c.71,0,1.38-.4,1.99-1.2l2.51-3.22c.51.5,1,.93,1.46,1.3.79.63,2.14,1.29,4.13,2.02,1.98.73,4.22,1.1,6.67,1.1,4.84,0,9.06-1.93,12.56-5.72,3.47-3.77,5.23-8.03,5.23-12.67,0-3.55-1.05-6.61-3.11-9.08-1.1-1.37-2.32-2.36-3.61-2.96-.85-.39-2.01-.79-3.52-1.22l.95-1.45s.11-.16.24-.36c.13-.2.48-.42.75-.46.29-.04.58.04.58.04l.11.07c.59.38,1.38.22,1.77-.37l1.89-2.89c.38-.59.22-1.38-.37-1.77l-4.16-2.72c-.59-.39-1.38-.22-1.77.37l-1.89,2.89c-.38.59-.22,1.38.37,1.77l.11.07s.03.04.06.08l.21.48c.05.26,0,.63-.13.81-.13.2-.24.36-.24.36l-1.49,2.27-1.9-.5c-1.5-.37-2.91-.74-4.19-1.1-1.07-.5-1.96-1.25-2.71-2.28-.74-1.01-1.1-2.23-1.1-3.71,0-2.51.98-4.73,3.01-6.77,2.02-2.04,4.35-3.03,7.11-3.03,3.42,0,5.9,1.01,7.58,3.1,1.71,2.13,2.58,5.07,2.58,8.74,0,.39,0,.54-.01.58-.03.16-.06.39-.06.91,0,1.77,1.1,2.4,2.12,2.4.57,0,1.05-.14,1.43-.43l.36-.27,2.94-17.36v-.14c.04-.71-.23-1.16-.47-1.41ZM126.08,209.24l.81-1.23c.12-.18.35-.23.53-.11l3.08,2.02c.18.12.23.35.11.53l-.81,1.24c-.12.18-.36.23-.53.11l-3.08-2.02c-.18-.12-.23-.36-.11-.53Z"/>
  <g>
    <path class="cls-1" d="M225.09,132.97c-.89-.06-1.81.1-2.66.53l-26.08,13.16,24.1,6.07,4.64-19.76Z"/>
    <path class="cls-1" d="M193.89,148.41l21.41,17.81,4.61-11.78-25.63-6.46c-.14.13-.27.28-.39.42Z"/>
    <path class="cls-1" d="M193,149.99l-4.11,10.06c-.55,1.44-.29,3.08.69,4.27l14.14,17.37c.47.58,1.06,1.03,1.71,1.35l9.1-15.15-21.52-17.9Z"/>
    <path class="cls-1" d="M207.21,183.55c.42.04.84.03,1.27-.04l22.29-3.61c.58-.09,1.12-.29,1.62-.57l-16.42-10.39-8.77,14.61Z"/>
    <path class="cls-1" d="M221.78,154.91l-.12-.03-4.87,12.46,17.07,10.8c.36-.44.67-.93.87-1.48l7.71-20.59c.17-.44.26-.9.3-1.35h-20.91l-.05.19Z"/>
    <path class="cls-1" d="M242.57,152.93c-.18-.65-.49-1.27-.92-1.81l-12.94-16.24c-.52-.65-1.17-1.14-1.88-1.46l-4.58,19.52h20.33Z"/>
  </g>
  <g>
    <path class="cls-1" d="M290.25,50.89l3.61-5.12-6.24.57c-.26.02-25.89,2.27-54.23-4.33-28.29-6.59-71.3-36.42-71.73-36.72l-1.66-1.15-1.66,1.15c-.43.3-43.44,30.13-71.73,36.72-28.34,6.6-53.97,4.36-54.22,4.33l-6.24-.58,3.61,5.13c.11.16,11.12,16.03,12.67,39.29,2.3,34.58.05,58.75-1.6,76.4-1.72,18.44-2.86,30.63,2.28,41.35,10.09,21.05,26.29,34.29,39.3,44.92,1.28,1.05,2.54,2.07,3.75,3.08,43.48,35.97,71.77,58.3,72.05,58.52l1.79,1.41,1.79-1.41c.28-.22,28.57-22.55,72.05-58.52,1.22-1.01,2.47-2.03,3.75-3.08,13.02-10.64,29.22-23.87,39.3-44.92,5.14-10.72,4-22.9,2.28-41.35-1.65-17.65-3.9-41.82-1.6-76.4,1.54-23.17,12.56-39.13,12.67-39.29ZM187.19,246.86h-8.06v-37.75h-5.09v-6.67c3.42-.2,6.08-1.77,6.69-4.42h6.46v48.84ZM230.29,234.2h-5.63v12.65h-7.98v-12.65h-22.58v-6.12l21.89-30.07h8.67v29.04h5.63v7.14ZM267.13,188.83h-107.13v109.79s0,0,0,0v3.98h.43c-.15.12-.29.23-.43.34-9.7-7.73-34.05-27.23-67.38-54.81-1.23-1.02-2.5-2.06-3.8-3.12-12.24-10-27.46-22.44-36.58-41.45-1.95-4.08-2.68-8.87-2.72-14.72h110.48v-60.54h0v.2h106.57c.36,15.81,1.54,28.55,2.52,39.04.79,8.43,1.44,15.42,1.39,21.32l-3.36-.02ZM86.04,139.18c-3.83,0-6.78,1.01-9.27,5.04l-4.83-6.24c3.42-4.36,7.99-6.51,14.5-6.51,7.79,0,13.36,4.97,13.36,13.63s-5.24,12.82-12.09,16.25c-5.71,2.89-7.92,6.78-7.92,11.88h20.01v7.12h-28.2v-3.83c0-10.88,3.49-16.52,11.08-20.88,5.1-2.89,9.87-3.56,9.87-10.14,0-4.03-2.15-6.31-6.51-6.31ZM121.83,155.16c-2.48,0-4.97,1.01-7.18,3.42l-6.98-2.95,1.88-23.5h24.31v7.18h-17.86l-1.01,11.15c1.95-1.81,4.7-2.62,7.18-2.62,9.2,0,14.5,6.24,14.5,16.79s-6.85,16.38-16.18,16.38c-6.98,0-10.47-1.48-13.5-3.76l3.83-7.12c3.42,2.48,6.51,3.42,9.53,3.42,5.44,0,9.47-3.09,9.47-9s-3.89-9.4-7.99-9.4ZM267.47,89.51c-.87,13.03-1.1,24.6-.97,34.92H53.51c.13-10.32-.1-21.89-.97-34.92-.91-13.63-4.69-24.94-8.08-32.62,10.7-.03,26.95-.93,44.46-5.01,24.97-5.81,58.23-26.88,71.09-35.47,12.86,8.59,46.12,29.65,71.09,35.47,17.51,4.08,33.76,4.98,44.46,5.01-3.39,7.68-7.17,18.99-8.08,32.62Z"/>
    <polygon class="cls-1" points="216.69 227.06 216.69 208.9 203.46 227.06 216.69 227.06"/>
  </g>
</svg>